<svg id="Layer_1" data-name="Layer 1" xmlns="http://www.w3.org/2000/svg" viewBox="0 0 183.51 180"><defs><style>.cls-1{fill:#d2ac2b;}</style></defs><path class="cls-1" d="M199.36,60.57a65.57,65.57,0,0,0-10.43-7.48c-11-6.45-25.47-11.44-41.9-14.43-4.2-.77-8.54-1.4-12.89-1.89-6.34-.72-12.85-1.14-19.4-1.29,4-5.52,10.11-13.25,13.55-14.54.55-.21,2-.76,1.59-1.89-.89-2.33-17.42-.15-19.47.54l-.31.11-10.49,16c-6.42.3-12.76.83-18.93,1.67-4.37.6-8.7,1.34-12.87,2.21-16.68,3.49-31,9.05-41.42,16.1a55.84,55.84,0,0,0-9.8,8.3l-.35.38.16.48a46.33,46.33,0,0,0,5.48,11.38c.65,1,1.32,1.94,2,2.81a55.63,55.63,0,0,0,6,6.69C29.05,103,28,140.32,33.5,148.61c11.78,17.58,31.43,25.59,47.24,32,9.57,3.9,19.84,12.18,19.84,12.18l6.18,5.19h.86s16.45-13.47,26-17.37c15.79-6.43,35.44-14.44,47.22-32,5.95-8.88,6.33-34.5,5.7-46.81l-.06-1.27L174,105.34l0,.65c1.37,26.83-1.84,32.07-4.18,35.9l-.24.4c-9.64,14.38-27.22,21.55-41.35,27.3a82.91,82.91,0,0,0-20.58,12.25c-5.15-4.21-13.45-8.91-21.65-12.25-14.13-5.75-31.71-12.92-41.31-27.25-1.8-3-2.9-22-2.07-47.31,1.87,1,3.82,2,5.83,2.93l.37.17.38-.15a128,128,0,0,1,18.08-5.47A172.5,172.5,0,0,1,85.66,89.4c6.06-.7,12.36-1.13,18.73-1.28,1.75-.05,6.47-.06,6.47-.06,6.5,0,12.92.35,19.1,1a176.92,176.92,0,0,1,20,3,133.66,133.66,0,0,1,17.86,5.06l.39.14.37-.18A68.44,68.44,0,0,0,180.16,90a57.72,57.72,0,0,0,11.09-11,50.28,50.28,0,0,0,4-6.08,44.74,44.74,0,0,0,4.41-11.48l.12-.51Zm-14.85,4.69a39.14,39.14,0,0,1-9.66,12.53,52,52,0,0,1-7.91,5.7,166.19,166.19,0,0,0-26.31-5.94l-.89-.14c-4.31-.61-8.85-1.09-13.47-1.44a222.68,222.68,0,0,0-37.1.33c-3.47.32-7,.74-10.48,1.25a11.05,11.05,0,0,0-2.93.46,161.61,161.61,0,0,0-26,6.36,51.88,51.88,0,0,1-9.47-6.58,40.16,40.16,0,0,1-8.52-10.36c8.18-6.19,20.2-11.26,34.8-14.68,3.68-.86,7.48-1.6,11.32-2.22a202.14,202.14,0,0,1,31.82-2.42,206,206,0,0,1,27.52,1.79c3.8.51,7.62,1.16,11.36,1.92C163.16,54.81,175.56,59.45,184.51,65.26Z" transform="translate(-16.24 -18)"/></svg>